# FamiTracker text export 0.4.2

# Song information
TITLE           ""
AUTHOR          ""
COPYRIGHT       ""

# Song comment
COMMENT ""

# Global settings
MACHINE         0
FRAMERATE       0
EXPANSION       0
VIBRATO         1
SPLIT           32

# Macros
MACRO       0   0  -1  -1   0 : 0
MACRO       0   1  -1  -1   0 : 9 5 0 2 1 1 1 1 1 1 0
MACRO       0   2  -1  -1   0 : 13 11 9 5 2 1 1 1 1 1 1 0
MACRO       0   3  -1  -1   0 : 2 1 1 1 1 1 1 1 0 0
MACRO       0   4  -1  -1   0 : 7 5 3 2 1 1 0
MACRO       0   5  -1  -1   0 : 13 12 10 9 7 5 4 3 1 0
MACRO       0   6  -1  -1   0 : 10 9 7 6 5 4 3 2 1 0
MACRO       0   7  -1  -1   0 : 6 5 4 3 2 1 1 0 0
MACRO       0   8  -1  -1   0 : 0 5 8 9 7 6 5 4 3 2 1 0
MACRO       0   9  -1  -1   0 : 4 3 2 2 1 1 0
MACRO       0  10   0  -1   0 : 2 2 3 3 4 4 5 5 4 4 3 3 2 2 1 1
MACRO       0  11  -1  -1   0 : 4 2 1 0
MACRO       0  12   0  -1   0 : 2 3 3 3 3 3 3 3
MACRO       0  13  -1  -1   0 : 1 2 3
MACRO       0  14  -1  -1   0 : 1
MACRO       0  15  -1  -1   0 : 1 1 1 1 0 0 0
MACRO       0  16  -1  -1   0 : 1 2 3 4 5 4 3 2 1 0 0
MACRO       0  17  -1  -1   0 : 1 1 1 1 2 1 1 1 1 0
MACRO       0  18  -1  -1   0 : 10 15 14 12 9 6 4 2
MACRO       0  19   0  -1   0 : 1 1 2 2 3 3 2 2
MACRO       0  20  -1  -1   0 : 4 3
MACRO       0  21  -1  -1   0 : 4 9 7 5 4 2 1 0
MACRO       0  22  -1  -1   0 : 9 5 0 2 1 1 1 1 1 1 0
MACRO       0  23  -1  -1   0 : 11 12 11 10
MACRO       0  24  -1  -1   0 : 0
MACRO       0  25  -1  -1   0 : 8 10 11 12 13 0
MACRO       0  26  -1  -1   0 : 12 14 15 12 8 4 0
MACRO       0  27  -1  -1   0 : 14 12 7 3 1 0
MACRO       0  28  -1  -1   0 : 9 8 7
MACRO       0  29  -1  -1   0 : 9 5 0 2 1 1 1 1 1 1 0
MACRO       0  30  -1  -1   0 : 13 11 9 5 2 1 1 1 1 1 1 0
MACRO       0  31  -1  -1   0 : 2 1 1 1 1 1 1 1 0 0
MACRO       0  32  -1  -1   0 : 7 5 3 2 1 1 0
MACRO       0  33  -1  -1   0 : 13 12 10 9 7 5 4 3 1 0
MACRO       0  34  -1  -1   0 : 10 9 7 6 5 4 3 2 1 0
MACRO       0  35  -1  -1   0 : 6 5 4 3 2 1 1 0 0
MACRO       0  36  -1  -1   0 : 0 5 8 9 7 6 5 4 3 2 1 0
MACRO       0  37  -1  -1   0 : 4 3 2 2 1 1 0
MACRO       0  38   0  -1   0 : 2 2 3 3 4 4 5 5 4 4 3 3 2 2 1 1
MACRO       0  39  -1  -1   0 : 4 2 1 0
MACRO       0  40   0  -1   0 : 2 3 3 3 3 3 3 3
MACRO       0  41  -1  -1   0 : 1 2 3
MACRO       0  42  -1  -1   0 : 1
MACRO       0  43  -1  -1   0 : 1 1 1 1 0 0 0
MACRO       0  44  -1  -1   0 : 1 2 3 4 5 4 3 2 1 0 0
MACRO       0  45  -1  -1   0 : 1 1 1 1 2 1 1 1 1 0
MACRO       0  46  -1  -1   0 : 10 15 14 12 9 6 4 2
MACRO       0  47   0  -1   0 : 1 1 2 2 3 3 2 2
MACRO       0  48  -1  -1   0 : 4 3
MACRO       0  49  -1  -1   0 : 9 5 0 2 1 1 1 1 1 1 0
MACRO       0  50  -1  -1   0 : 11 12 11 10
MACRO       0  51  -1  -1   0 : 8 10 11 12 13 0
MACRO       0  52  -1  -1   0 : 12 14 15 12 8 4 0
MACRO       0  53  -1  -1   0 : 14 12 7 3 1 0
MACRO       0  54  -1  -1   0 : 9 8 7
MACRO       0  55  -1  -1   0 : 9 5 0 2 1 1 1 1 1 1 0
MACRO       0  56  -1  -1   0 : 4 2 1 0
MACRO       0  57  -1  -1   0 : 4 2 1 0
MACRO       0  58  -1  -1   0 : 4 2 1 0
MACRO       0  59   0  -1   0 : 1 1 2 2 3 3 2 2
MACRO       0  60  -1  -1   0 : 2 1 1 1 1 1 1 1 0 0
MACRO       0  61  -1  -1   0 : 9 5 0 2 1 1 1 1 1 1 0
MACRO       0  62  -1  -1   0 : 13 12 10 9 7 5 4 3 1 0
MACRO       0  63  -1  -1   0 : 10 9 7 6 5 4 3 2 1 0
MACRO       0  64  -1  -1   0 : 6 5 4 3 2 1 1 0 0
MACRO       0  65  -1  -1   0 : 4 3 2 2 1 1 0
MACRO       0  66  -1  -1   0 : 7 5 3 2 1 1 0
MACRO       0  67  -1  -1   0 : 13 11 9 5 2 1 1 1 1 1 1 0
MACRO       0  68  -1  -1   0 : 1 2 3 4 5 4 3 2 1 0 0
MACRO       0  69   0  -1   0 : 2 2 3 3 4 4 5 5 4 4 3 3 2 2 1 1
MACRO       0  70  -1  -1   0 : 9 5 0 2 1 1 1 1 1 1 0
MACRO       0  71  -1  -1   0 : 4 2 1 0
MACRO       0  72  -1  -1   0 : 4 2 1 0
MACRO       0  73  -1  -1   0 : 4 2 1 0
MACRO       0  74   0  -1   0 : 1 1 2 2 3 3 2 2
MACRO       0  75  -1  -1   0 : 2 1 1 1 1 1 1 1 0 0
MACRO       0  76  -1  -1   0 : 9 5 0 2 1 1 1 1 1 1 0
MACRO       0  77  -1  -1   0 : 13 12 10 9 7 5 4 3 1 0
MACRO       0  78  -1  -1   0 : 10 9 7 6 5 4 3 2 1 0
MACRO       0  79  -1  -1   0 : 6 5 4 3 2 1 1 0 0
MACRO       0  80  -1  -1   0 : 4 3 2 2 1 1 0
MACRO       0  81  -1  -1   0 : 7 5 3 2 1 1 0
MACRO       0  82  -1  -1   0 : 13 11 9 5 2 1 1 1 1 1 1 0
MACRO       0  83  -1  -1   0 : 1 2 3 4 5 4 3 2 1 0 0
MACRO       0  84   0  -1   0 : 2 2 3 3 4 4 5 5 4 4 3 3 2 2 1 1
MACRO       0  85  -1  -1   0 : 9 5 0 2 1 1 1 1 1 1 0
MACRO       0  86  -1  -1   0 : 4 2 1 0
MACRO       0  87  -1  -1   0 : 4 2 1 0
MACRO       0  88  -1  -1   0 : 4 2 1 0
MACRO       0  89   0  -1   0 : 1 1 2 2 3 3 2 2
MACRO       0  90  -1  -1   0 : 2 1 1 1 1 1 1 1 0 0
MACRO       0  91  -1  -1   0 : 9 5 0 2 1 1 1 1 1 1 0
MACRO       0  92  -1  -1   0 : 13 12 10 9 7 5 4 3 1 0
MACRO       0  93  -1  -1   0 : 10 9 7 6 5 4 3 2 1 0
MACRO       0  94  -1  -1   0 : 6 5 4 3 2 1 1 0 0
MACRO       0  95  -1  -1   0 : 4 3 2 2 1 1 0
MACRO       0  96  -1  -1   0 : 7 5 3 2 1 1 0
MACRO       0  97  -1  -1   0 : 13 11 9 5 2 1 1 1 1 1 1 0
MACRO       0  98  -1  -1   0 : 1 2 3 4 5 4 3 2 1 0 0
MACRO       0  99  -1  -1   0 : 7 5 3 2 1 1 0
MACRO       0 100  -1  -1   0 : 0 5 8 9 7 6 5 4 3 2 1 0
MACRO       0 101   0  -1   0 : 2 2 3 3 4 4 5 5 4 4 3 3 2 2 1 1
MACRO       0 102  -1  -1   0 : 4 3
MACRO       0 103  -1  -1   0 : 1 2 3
MACRO       0 104  -1  -1   0 : 4 3
MACRO       1   0  -1  -1   0 : 0 0 3 11 12
MACRO       1   1  -1  -1   0 : 2 4 3 2 12 11 10
MACRO       1   2  -1  -1   0 : -12 -5 0 -12 -5 0 -12
MACRO       1   3   0  -1   0 : -12 -12 -9 -9 -5 -5
MACRO       1   4  -1  -1   0 : 12 -12 0
MACRO       1   5   0  -1   0 : -12 -12 -8 -8 -5 -5
MACRO       1   6   0  -1   0 : 0 0 12 12
MACRO       1   7  -1  -1   0 : 12 -12 0 0
MACRO       1   8  -1  -1   0 : -1 0
MACRO       1   9  -1  -1   0 : 0 0 3 11 12
MACRO       1  10  -1  -1   0 : 2 4 3 2 12 11 10
MACRO       1  11  -1  -1   0 : -12 -5 0 -12 -5 0 -12
MACRO       1  12   0  -1   0 : -12 -12 -9 -9 -5 -5
MACRO       1  13  -1  -1   0 : 12 -12 0
MACRO       1  14   0  -1   0 : -12 -12 -8 -8 -5 -5
MACRO       1  15   0  -1   0 : 0 0 12 12
MACRO       1  16  -1  -1   0 : 12 -12 0 0
MACRO       1  17  -1  -1   0 : -1 0
MACRO       1  18  -1  -1   0 : 12 -12 0 0
MACRO       1  19   0  -1   0 : -12 -12 -8 -8 -5 -5
MACRO       1  20  -1  -1   0 : 0 0 3 11 12
MACRO       1  21  -1  -1   0 : -12 -5 0 -12 -5 0 -12
MACRO       1  22  -1  -1   0 : 2 4 3 2 12 11 10
MACRO       1  23  -1  -1   0 : 12 -12 0 0
MACRO       1  24   0  -1   0 : -12 -12 -8 -8 -5 -5
MACRO       1  25  -1  -1   0 : 0 0 3 11 12
MACRO       1  26  -1  -1   0 : -12 -5 0 -12 -5 0 -12
MACRO       1  27  -1  -1   0 : 2 4 3 2 12 11 10
MACRO       1  28  -1  -1   0 : 12 -12 0 0
MACRO       1  29   0  -1   0 : -12 -12 -8 -8 -5 -5
MACRO       1  30  -1  -1   0 : 0 0 3 11 12
MACRO       1  31  -1  -1   0 : -12 -5 0 -12 -5 0 -12
MACRO       1  32  -1  -1   0 : 2 4 3 2 12 11 10
MACRO       1  33   0  -1   0 : 0 0 12 12
MACRO       2   0   0  -1   0 : 119
MACRO       2   1   0  -1   0 : 0 -1 -3 -1 0 1 3 1 0
MACRO       2   2   0  -1   0 : 0 0 -1 -1 0 0 1 1 0 0
MACRO       2   3   3  -1   0 : 0 0 0 0 0 -1 -1 0 0 1 1 0 0
MACRO       2   4   0  -1   0 : 0 0 0 0 0 0 0 0 0 0 2 1 2 1 1 2 2 2 2 2
MACRO       2   5   8  -1   0 : 0 0 0 0 0 0 0 0 0 0 -1 -2 -1 0 1 2 1 0 0
MACRO       2   6   0  -1   0 : 0 4 8 4 0 -4 -8 -4 0
MACRO       2   7   6  -1   0 : 0 0 0 0 0 0 11
MACRO       2   8   0  -1   0 : 119
MACRO       2   9   0  -1   0 : 0 -1 -3 -1 0 1 3 1 0
MACRO       2  10   0  -1   0 : 0 0 -1 -1 0 0 1 1 0 0
MACRO       2  11   3  -1   0 : 0 0 0 0 0 -1 -1 0 0 1 1 0 0
MACRO       2  12   0  -1   0 : 0 0 0 0 0 0 0 0 0 0 2 1 2 1 1 2 2 2 2 2
MACRO       2  13   8  -1   0 : 0 0 0 0 0 0 0 0 0 0 -1 -2 -1 0 1 2 1 0 0
MACRO       2  14   0  -1   0 : 0 4 8 4 0 -4 -8 -4 0
MACRO       2  15   6  -1   0 : 0 0 0 0 0 0 11
MACRO       2  16   8  -1   0 : 0 0 0 0 0 0 0 0 0 0 -1 -2 -1 0 1 2 1 0 0
MACRO       2  17   0  -1   0 : 0 0 -1 -1 0 0 1 1 0 0
MACRO       2  18   0  -1   0 : 0 -1 -3 -1 0 1 3 1 0
MACRO       2  19   8  -1   0 : 0 0 0 0 0 0 0 0 0 0 -1 -2 -1 0 1 2 1 0 0
MACRO       2  20   0  -1   0 : 0 0 -1 -1 0 0 1 1 0 0
MACRO       2  21   0  -1   0 : 0 -1 -3 -1 0 1 3 1 0
MACRO       2  22   8  -1   0 : 0 0 0 0 0 0 0 0 0 0 -1 -2 -1 0 1 2 1 0 0
MACRO       2  23   0  -1   0 : 0 0 -1 -1 0 0 1 1 0 0
MACRO       2  24   0  -1   0 : 119
MACRO       2  25   0  -1   0 : 0 -1 -3 -1 0 1 3 1 0
MACRO       2  26   0  -1   0 : 0 -1 -3 -1 0 1 3 1 0
MACRO       2  27   8  -1   0 : 0 0 0 0 0 0 0 0 0 0 -1 -2 -1 0 1 2 1 0 0
MACRO       2  28   8  -1   0 : 0 0 0 0 0 0 0 0 0 0 -1 -2 -1 0 1 2 1 0 0
MACRO       2  29   6  -1   0 : 0 0 0 0 0 0 11
MACRO       4   0  -1  -1   0 : 1 0
MACRO       4   1  -1  -1   0 : 0 1 2
MACRO       4   2  -1  -1   0 : 1
MACRO       4   3   0  -1   0 : 0 0 0 0 1 1 1 1
MACRO       4   4   0  -1   0 : 1 1 1 1 1 2 2 2 2 2
MACRO       4   5  -1  -1   0 : 2
MACRO       4   6  -1  -1   0 : 1
MACRO       4   7   0  -1   0 : 2 2 2 2 2 1 1 1 1 1
MACRO       4   8  -1  -1   0 : 1 0
MACRO       4   9  15  -1   0 : 0 2 2 2 2 2 2 2 1 1 1 1 1 1 1 0 0 0 0 0 1 1 1 1 1
MACRO       4  10  -1  -1   0 : 0 1 2
MACRO       4  11  -1  -1   0 : 1
MACRO       4  12   0  -1   0 : 1 2 2
MACRO       4  13   0  -1   0 : 0 0 0 0 1 1 1 1
MACRO       4  14   0  -1   0 : 1 1 1 1 1 2 2 2 2 2
MACRO       4  15  -1  -1   0 : 2
MACRO       4  16  -1  -1   0 : 1
MACRO       4  17   0  -1   0 : 2 2 2 2 2 1 1 1 1 1
MACRO       4  18  15  -1   0 : 0 2 2 2 2 2 2 2 1 1 1 1 1 1 1 0 0 0 0 0 1 1 1 1 1
MACRO       4  19   0  -1   0 : 1 2 2
MACRO       4  20  -1  -1   0 : 1
MACRO       4  21  -1  -1   0 : 2
MACRO       4  22  15  -1   0 : 0 2 2 2 2 2 2 2 1 1 1 1 1 1 1 0 0 0 0 0 1 1 1 1 1
MACRO       4  23  -1  -1   0 : 1 0
MACRO       4  24  -1  -1   0 : 2
MACRO       4  25  -1  -1   0 : 0 1 2
MACRO       4  26  -1  -1   0 : 1 0
MACRO       4  27   0  -1   0 : 1 1 1 1 1 2 2 2 2 2
MACRO       4  28   0  -1   0 : 1 1 1 1 1 2 2 2 2 2
MACRO       4  29  -1  -1   0 : 1
MACRO       4  30  -1  -1   0 : 2
MACRO       4  31  15  -1   0 : 0 2 2 2 2 2 2 2 1 1 1 1 1 1 1 0 0 0 0 0 1 1 1 1 1
MACRO       4  32  -1  -1   0 : 1 0
MACRO       4  33  -1  -1   0 : 2
MACRO       4  34  -1  -1   0 : 0 1 2
MACRO       4  35  -1  -1   0 : 1 0
MACRO       4  36   0  -1   0 : 1 1 1 1 1 2 2 2 2 2
MACRO       4  37   0  -1   0 : 1 1 1 1 1 2 2 2 2 2
MACRO       4  38  -1  -1   0 : 1
MACRO       4  39  -1  -1   0 : 2
MACRO       4  40  15  -1   0 : 0 2 2 2 2 2 2 2 1 1 1 1 1 1 1 0 0 0 0 0 1 1 1 1 1
MACRO       4  41  -1  -1   0 : 1 0
MACRO       4  42  -1  -1   0 : 2
MACRO       4  43  -1  -1   0 : 0 1 2
MACRO       4  44  -1  -1   0 : 1 0
MACRO       4  45   0  -1   0 : 1 1 1 1 1 2 2 2 2 2
MACRO       4  46  -1  -1   0 : 1
MACRO       4  47   0  -1   0 : 1 1 1 1 1 2 2 2 2 2
MACRO       4  48  15  -1   0 : 0 2 2 2 2 2 2 2 1 1 1 1 1 1 1 0 0 0 0 0 1 1 1 1 1
MACRO       4  49  15  -1   0 : 0 2 2 2 2 2 2 2 1 1 1 1 1 1 1 0 0 0 0 0 1 1 1 1 1
MACRO       4  50  15  -1   0 : 0 2 2 2 2 2 2 2 1 1 1 1 1 1 1 0 0 0 0 0 1 1 1 1 1

# DPCM samples
DPCMDEF   0   849 "c_a"
DPCM : FF 00 00 FC FF 5F 6A 01 00 C0 FF FF 2F 00 11 51 FB 7F 2B 01 24 B5 B7 55 49 10 91 76 5B 6D F7 FF
DPCM : 03 00 00 FF FF 95 5A 01 00 E0 FF FF 0B 01 22 62 FF EF 2A 40 48 F5 6E 55 12 22 62 ED DA DA FE FF
DPCM : 01 00 80 FF BF C9 5A 00 00 F0 FF FF 0B 40 44 E8 7F BF 05 10 89 ED 5D 95 84 48 64 DB B6 B6 FF 7F
DPCM : 00 00 E0 FF 6F AA 15 00 00 FC FF FF 01 10 11 BA FF 5F 11 40 A4 7B 5B 95 04 21 6A DB 76 D7 FF 0F
DPCM : 00 00 FC FF 57 DA 04 00 80 FF FF 2F 01 04 42 FF FF 56 00 A4 D4 DE 56 25 04 A1 DA DD 5A FF FF 03
DPCM : 00 00 FE FF A9 56 00 00 F0 FF FF 0B 01 82 68 FF BF 45 80 48 ED 76 4D 11 04 D2 EE 6D AB FF 7F 00
DPCM : 00 E0 FF AF 6A 05 00 00 FF FF 7F 00 44 90 FE FD 57 02 20 69 DF 56 45 04 44 ED DD B5 FF FF 00 00
DPCM : 00 FF FF 69 2D 01 00 E0 FF FF 0B 04 44 B0 FF 7F 45 00 91 F6 6D 55 04 81 D4 BE EB F6 FF 07 00 00
DPCM : FC FF 97 AE 02 00 80 FF FF 9F 00 44 A0 FE F7 9B 00 21 D9 B7 5A 11 41 C8 7A D7 EE FF 3F 00 00 E0
DPCM : FF 9F B6 09 00 00 FC FF FF 02 41 20 EA FF B7 22 10 49 DD 5D 25 11 44 DA B6 6B FF FF 03 00 00 FE
DPCM : FF AA 9D 00 00 C0 FF FF 4F 04 44 90 FE DF 55 04 25 AA 5D AB 92 20 51 B5 6B 7B FF 7F 00 00 C0 FF
DPCM : BF BA 15 00 00 F8 FF FF 92 00 01 B1 FF DF 12 50 22 ED B6 AA 84 10 AA BB 6D F7 FF 07 00 00 F8 FF
DPCM : AF 5D 09 00 00 FE FF BF 80 10 84 FA 7F 2F 21 14 51 77 AD 4A 84 90 DA 6D DB FF FF 00 00 00 FF FF
DPCM : DA 56 00 00 E0 FF FF 2B 02 44 A0 FE EF 2D 02 25 D2 5E 5B 49 10 92 B6 DB B6 FF FF 00 00 00 FF FF
DPCM : 6A 97 00 00 E0 FF FF 2B 20 20 D0 FF EF 46 40 22 D9 DB B5 08 44 A4 EE AD 75 FF FF 00 00 80 FF EF
DPCM : 72 8B 00 00 F8 FF FF 11 08 41 D2 FE EF 4A 40 48 F6 76 95 14 04 A9 ED 76 5B FF 7F 00 00 C0 FF 7F
DPCM : DA 92 00 00 F8 FF FF 02 41 44 B2 DF DF 12 10 51 DD 6D 25 05 82 AA BB BB F6 FF 0F 00 00 F0 FF 9F
DPCM : B6 04 00 00 FF FF 7F 00 24 A4 DC BF 5F 04 10 69 6F 57 49 82 40 6D DF B6 FE FF 03 00 00 FC FF 67
DPCM : AB 04 00 C0 FF FF 27 00 89 88 FD 7F 17 01 48 D9 DB 96 12 08 D4 F6 6E DB FF 1F 00 00 E0 FF 7F B6
DPCM : 2A 00 00 FC FF 7F 01 90 10 B6 FF 77 41 40 A4 7B 5B 25 81 20 75 EF B6 FD FF 03 00 00 FE FF 69 AB
DPCM : 00 00 C0 FF FF 2F 40 08 B0 FB FF 16 08 81 BA D7 55 22 84 D0 EE 75 D7 FF 1F 00 00 E0 FF BF B6 2A
DPCM : 00 00 F8 FF FF 82 40 82 D8 FB BF 11 88 50 BD B5 2A 21 88 DC 75 B7 FE FF 03 00 00 FC FF AB AD 02
DPCM : 00 80 FF FF 9F 00 12 90 DE FF 5B 10 04 69 6F 5B 49 20 48 BB DB 6E FF FF 00 00 00 FF FF DA 2A 01
DPCM : 00 E0 FF FF 87 00 11 64 F7 FF 46 08 44 B6 DB 56 24 20 B4 EE EE DA FF 1F 00 00 F0 FF 1F B7 4A 00
DPCM : 00 FC FF FF 80 40 20 B5 FF B7 22 10 64 BB 6D 25 11 40 B5 7B 77 FD FF 03 00 00 FC FF 97 AD 02 00
DPCM : 80 FF FF 9F 80 90 40 F5 F7 9F 10 84 D4 6D AD 52 10 50 ED DD 6D FF FF 00 00 00 FF FF E9 A6 00 00
DPCM : E0 FF FF 17 00 21 52 55 55 55 55 55 55 55 55 55 55
DPCMDEF   1   897 "d_e"
DPCM : B8 E1 5F E6 0F 1F 1E 00 3E 80 13 F8 CF E6 BF D8 1F 60 03 68 45 54 27 D4 26 B8 A2 CC FE C3 BF C5
DPCM : 3F 3C 7C 00 F8 00 4E E0 5F 67 FF 62 7F 80 25 A0 15 89 1E 91 1B 64 33 51 FF 07 FF 93 7F 78 E8 00
DPCM : F0 01 5C C0 7F 97 FD 47 FE 01 55 80 96 04 5F 48 5E 50 59 83 FB 1F FE 35 FE F0 E1 01 E0 03 38 81
DPCM : 7F 5E F9 1F FA 07 38 01 56 12 79 11 79 81 95 25 ED 3F FC 5B FC C3 C3 07 80 0F 60 09 FE 79 D5 7F
DPCM : F4 0F D0 04 54 51 E8 05 D9 05 36 29 6D FF F0 6F F1 0F 0F 1F 00 3E 80 43 F8 E7 93 FF E8 3F C0 11
DPCM : 50 45 A2 17 E4 0B B8 92 E8 FB C3 BF C9 3F 3C 7C 00 F8 00 4E E0 3F 67 FF E2 7E 80 47 80 15 94 1D
DPCM : 91 3B E0 92 E4 FE 07 FF 99 7F 78 F8 00 F0 00 3C C0 7F 5B FD 47 FF 00 2E 80 16 49 76 A0 6E C0 99
DPCM : 62 FE 87 FF 93 7F 3C 78 00 F8 00 5C E0 5F 67 EF 0F 7F 01 2E 80 16 51 BA 90 B6 C0 4E A4 FF C3 BF
DPCM : C3 3F 3E 78 00 F8 00 66 E0 B7 57 FF 07 FD 80 2E 40 25 49 B6 88 6E C0 9A E4 FC C3 FF 8B 3F 3C 7C
DPCM : 00 F8 00 A6 A0 3F 5F FE 17 FE 01 AE 00 95 44 BA 82 7C C0 66 83 FB 87 FF 8B 7F 3C F8 00 F0 00 5A
DPCM : A0 3F 5F FE 47 FE 01 36 01 56 22 7A 42 BA 88 9A 89 FE 0F FF 13 FF 78 F0 01 E0 03 58 81 5F 9F F9
DPCM : 9F F4 03 39 03 54 89 D8 12 E9 42 72 46 F6 3F FC 5B FC E3 43 07 80 0F 60 05 7E 7B EA BF F4 0B D4
DPCM : 04 54 15 D4 25 D2 86 58 13 D9 FE E1 7F E2 1F 1F 3E 00 7C 00 2B E0 AF 17 FF A3 7F 80 2B 40 55 84
DPCM : 5E 88 3E C0 CD 90 FB 0F FF 25 FF F0 F0 01 E0 03 B8 00 FF 5E FC 2F FA 07 B4 00 55 09 B9 09 7C 01
DPCM : 37 89 DE 3F FC 5B FC C3 C3 07 80 0F E0 02 FE 7A E6 3F D9 0F D8 04 54 25 E4 86 E8 06 5C 13 7A 7F
DPCM : F8 6F F9 87 87 0F 00 1F 80 0D F8 EB D9 BF D4 2F D0 12 50 15 91 2B 54 27 D8 94 D4 FD E1 FF F0 1F
DPCM : 1E 3E 00 7C 00 36 E0 AF 73 FF 92 BF 80 4D 40 55 24 5D 50 9B A0 4D 52 F7 87 FF 83 7F 7C 78 00 F8
DPCM : 00 7C 80 3F 9F FD 87 FE 02 36 40 55 12 7A 41 6E 02 57 8A F9 1F FE 0F FF F0 F0 01 E0 03 D8 08 DF
DPCM : 9E F9 77 F4 13 D8 00 55 4A D8 92 D8 09 56 19 B9 7F F8 6F F1 87 8F 0F 00 1F 80 0B F8 E7 59 FF E4
DPCM : 1F E0 12 D0 A4 90 17 52 0F 74 62 86 FB 87 FF 92 7F 7C F8 00 F0 01 9C 80 3F AF FD 4D FD 02 B3 00
DPCM : 4B 12 AD 24 6D A2 CC A4 CC 7F F8 AF F8 87 8F 0F 00 1F C0 0A F8 F3 E9 DF E8 1F E0 0A 50 15 D2 26
DPCM : B2 0D 69 49 16 FB 0F FF 86 FF F0 F0 01 E0 03 9C 80 3F 5F F6 0F FD 03 9E 00 55 12 FA 80 DD 80 17
DPCM : 99 B2 7F F0 3F F9 87 8F 0F 00 1F C0 0A F8 7B E9 BF F0 1F D0 01 54 25 F0 03 E9 0B B4 4C B4 FD E1
DPCM : 7F E2 1F 1F 1E 00 3E 80 0B F0 EF 99 FF A4 3F E0 09 50 25 A1 17 E4 0E 68 8B E4 FE E1 FF E0 1F 1F
DPCM : 3E 00 3C 80 4B E0 CF 97 FF 91 7F 40 0B 50 A5 84 5E A0 17 A8 99 62 FF C3 FF E0 1F 3E 3E 00 7C 00
DPCM : 36 E0 AF 97 FF 91 7F 80 0B 50 95 84 9D 44 5B 90 35 D2 F6 87 7F 87 7F 7C 78 00 F0 01 4E C0 3F 1F
DPCM : FF 93 FE 01 27 40 93 0A 5E 22 3D 60 47 CA E6 3F FC 1B FE E1 E3 03 80 0F B0 02 FE 7C E6 3F F9 07
DPCM : AC 02 34 09 B9 89 74 11 35 23 9B FF F0 6F F0 8F 0F 1F 00 3E 55 55 55 55 55 55 55 55 55 55 55 55
DPCM : 55
DPCMDEF   2   849 "e_eh"
DPCM : F0 C3 FF FF C0 00 80 07 FF 1F 40 04 00 02 C0 FE FF FF 7F 38 00 00 FF F3 FF FF 28 00 E0 C1 FF 07
DPCM : 20 00 90 08 60 FF FF FF 1F 1E 00 80 FF FC FF 3F 18 00 F0 F0 FF 01 10 01 10 00 C8 FF FF FF 8F 0F
DPCM : 00 C0 7F FE FF 1F 06 00 7C F8 FF 00 10 00 44 00 D8 FF FF FF C3 03 00 F0 BF FF FF 0F 06 00 F8 C1
DPCM : FF 1F 00 64 00 C0 00 C0 FD FF FF FF 83 07 00 00 FF E7 FF FF 07 0C 00 F0 83 FF 3F 00 12 00 08 03
DPCM : C0 FF FF FF FF 07 0C 00 00 FF CF FF FF 07 38 00 E0 87 FF 7F 00 20 00 40 06 80 FB FF FF FF 07 0E
DPCM : 00 00 FE DF FF FF 07 18 00 E0 0F FF 7F 00 20 00 40 05 C0 FB FF FF FF 07 06 00 00 FF DF FF FF 07
DPCM : 08 00 E0 3F FF 7F 00 00 00 C0 04 80 FF FF FF FF 07 06 00 00 FF DF FF FF 0B 08 00 F0 1F FF 3F 00
DPCM : 20 02 00 03 80 FF FF FF FF 07 0A 00 00 FF DF FF FF 07 48 00 E0 1F FF 7F 00 00 00 C0 06 80 FF FF
DPCM : FF FF 07 1C 00 00 FC BF FF FF 17 20 00 C0 3F FF 7F 00 00 04 00 0D 00 FF FF FF FF 0F 38 00 00 F8
DPCM : FF FF FF 27 22 00 80 7F FC FF 01 00 02 00 36 00 FC FF FF FF 3F 60 00 00 F0 FF FE FF 3F 80 00 00
DPCM : FF F8 FF 03 00 10 00 66 00 F8 FF FF FF 7F C0 00 00 E0 FF FB FF FF 00 02 00 FC F3 FF 07 00 60 00
DPCM : 90 00 F0 FF FF FF FF 01 03 00 80 FF FF FF FF 00 0A 00 F0 6F FF 1F 00 80 00 50 02 C0 FF FF FF FF
DPCM : 03 03 00 80 FF EF FF FF 03 08 00 F0 CF FF 3F 00 00 00 C0 01 60 FF FF FF FF 03 06 00 00 FF FF FF
DPCM : FF 07 20 00 E0 1F FF 7F 00 00 00 E0 04 00 FF FF FF FF 0F 1C 00 00 FC BF FF FF 2F 00 00 80 7F FE
DPCM : FF 01 00 00 C0 0C 00 BB FF FF FF 3F 60 00 00 F0 FF FF FF 3F 00 03 00 FE FC FF 03 00 10 00 98 00
DPCM : F8 FF FF FF FF 00 03 00 C0 FF F7 FF FF 01 18 00 F0 57 FF 3F 00 00 01 40 06 80 FF FF FF FF 07 18
DPCM : 00 00 FE FF FF FF 03 30 00 C0 7F FE FF 00 00 00 00 0B 00 FE FF FF FF 1F 70 00 00 FC 7F FF FF 27
DPCM : A0 00 80 7F F9 FF 01 00 00 80 06 00 FF FF FF FF 3F 40 00 00 F8 FF FF FF 1F 00 01 00 FF FC FF 03
DPCM : 00 00 00 2C 00 F8 FF FF FF 7F C0 01 00 E0 FF FF FF 7F 00 00 00 FC DF FF 07 00 00 80 98 01 E8 FF
DPCM : FF FF FF 01 04 00 80 FF FF FF FF 00 06 00 F0 DF FF 1F 00 00 00 60 02 C0 FF FF FF FF 07 18 00 00
DPCM : FE FF FF FF 03 70 00 C0 5F FD 7F 00 00 01 40 09 80 FD FF FF FF 3F 40 00 00 F8 FF FF FF 1F 00 00
DPCM : 80 FF FD FF 01 00 00 00 0B 00 F9 FF FF FF FF 00 01 00 C0 FF FF FF FF 00 08 00 FC F7 FF 07 00 00
DPCM : 00 98 01 E0 FF FF FF FF 03 08 00 00 FF FF FF FF 03 00 00 F0 FF FF 1F 00 00 00 60 03 80 FF FF FF
DPCM : FF 0F 08 00 00 FE FF FF FF 07 20 00 C0 FF BF 7F 00 00 00 80 25 00 FE FF FF FF 1F 10 00 00 FC FF
DPCM : FF FF 0F 60 00 80 7F FF 7F 00 00 00 80 0D 00 FE FF FF FF 1F 30 00 00 F8 FF FF FF 1F 80 00 00 FF
DPCM : FD FF 00 00 00 80 4E 00 FC FF FF FF 1F 60 00 00 F8 FF FF FF 1F 40 00 C0 3F FD FF 00 00 00 80 0B
DPCM : 00 EE FF FF 55 55 55 55 55 55 55 55 55 55 55 55 55
DPCMDEF   3   881 "f_i"
DPCM : FF FF 7F C0 FE 01 F0 07 00 07 00 37 01 60 00 E0 3C 80 FF C3 FF FF F5 FF A7 FF 0F D0 7F 00 5E 00
DPCM : F0 08 A0 0B 00 4A 00 78 0E C0 FF E1 FF FF F7 FF F1 FF 03 F1 1F 80 1F 00 B8 00 58 03 80 0C 00 9B
DPCM : 03 F8 3F FC FF 3F FF 7F FC FF 00 FF 01 F0 03 80 1B 00 B6 00 A0 01 80 67 00 FE 8F FF FF 77 FF 9F
DPCM : FF 1F 20 FF 01 F8 00 C0 03 A0 4D 00 A8 00 F0 38 80 FF E1 FF FF DD FF B3 FF 0F F8 27 00 3F 00 78
DPCM : 00 70 13 00 0A 00 7C 0E E0 7F F8 FF 7F FF FF F8 FF 01 FC 03 E0 07 00 3E 00 DC 02 40 01 80 8F 01
DPCM : FC 3F FC FF DF FF 3F 7D FF 80 FE 01 F0 01 20 47 00 3B 01 D0 00 E0 62 80 FF 07 FF FF F7 FF E7 FE
DPCM : 0F C0 FF 00 FC 00 E0 02 C0 0E 00 2A 00 70 0E C4 FF F1 FF 7F FB FF F5 FD 03 EC 0F 80 3F 00 38 00
DPCM : 6C 05 00 06 80 CE 81 F8 1F FE FF 7F FF 3F BD FF 80 FC 03 F8 04 00 0F 80 56 01 C0 00 E0 63 00 FF
DPCM : 87 FF FF EF FF D7 DD DF 20 FE 00 FC 00 C0 03 20 97 00 30 00 B8 0E E0 FF F0 FF FF FE FF F8 FD 07
DPCM : F8 07 A0 17 00 5C 00 5C 05 80 0C 00 8F 03 F8 3F F8 FF FF FD 7F BE FF 00 FB 03 F0 03 80 0E 00 3B
DPCM : 01 C0 01 C0 71 00 FF 0F FF FF 77 FF 5F EF 3F C0 7F 00 FC 00 C0 03 C0 55 00 C8 00 E0 1C C0 FF E1
DPCM : FF FF FD FF E3 FB 0F E4 1F 80 2F 00 F0 00 68 0D 00 1C 00 8E 82 F8 3F F8 FF 7F FF 7F 7E FE 03 FC
DPCM : 07 E0 0B 00 0E 80 5A 01 A0 04 80 C7 01 FE 0F FE FF BF FF 5F AF 7F 41 FE 01 F0 03 80 13 00 57 00
DPCM : 30 01 E0 71 80 FF C1 FF FF DF FF D7 FB 2F 88 3F 00 DF 00 E0 00 70 13 00 1C 00 74 1C E0 FF E0 FF
DPCM : FF FE FF F9 FE 03 FC 07 C0 0F 00 BC 00 68 03 80 0A 80 1C 83 F8 3F F8 FF FF FE 7F BE 7F 83 F8 03
DPCM : E0 0F 00 1E 00 3A 01 C0 01 40 CF 00 FE 0F FE FF DF FF 9F FE 3F 60 BF 00 F8 01 A0 03 C0 4E 00 68
DPCM : 00 F0 11 88 FF 83 FF FF DF FF E7 F7 0F 98 3F 00 3F 00 F0 00 B0 15 00 16 00 7C 04 E2 FF E0 FF FF
DPCM : F7 FF F9 FD 03 E6 0F 80 3F 00 38 00 EC 04 00 07 00 1F 02 F9 3F FC FF DF FD 7F BD FF 80 F9 03 E0
DPCM : 0F 00 1C 00 5D 05 40 01 80 97 01 FE 1F FC FF 7F FF 5F DF BF 80 FE 01 F0 03 80 13 00 4F 01 60 02
DPCM : A0 C3 80 FE 0F FF FF F7 FF E7 EB 3F 10 FF 00 FC 00 C0 01 48 37 00 18 01 E0 39 80 FF 83 FF FF DF
DPCM : FF D7 FB 0F F0 1F 00 5F 00 70 01 D0 15 00 1A 00 74 1C C0 FF E1 FF FF FB FF EB FE 07 F0 0F C0 0F
DPCM : 00 5C 00 78 03 40 09 00 CE 05 F0 7F FC FF 7F FE FF 3A FF 03 FA 03 F0 03 80 0E 00 5D 01 A0 04 C0
DPCM : F1 00 FE 0F FF FF 5F FF 5F EF 3F A0 3F 00 DE 00 E0 03 80 37 00 98 00 E0 3C 80 FF E1 FF FF FB FF
DPCM : D3 FB 07 F8 1F 00 3F 00 70 01 70 13 00 4C 00 3C 0A E2 FF F0 FF FF FA FF F5 FE 03 FA 03 E0 07 00
DPCM : 1B 80 5C 05 80 12 00 8F 81 FC 1F FC FF 7F FD 7F B7 FF 00 FF 00 78 03 80 2B 00 DD 00 10 03 80 F3
DPCM : 00 FE 87 FF FF F7 FF 4F F7 1F F0 3F 00 DC 00 B0 0A C0 15 00 2C 00 E4 1C C0 FF E1 FF FF F7 FF B3
DPCM : FF 0B F0 1F 00 3F 00 58 00 74 15 00 2A 00 9C 03 F4 7F F8 FF DF FD 7F BE FF 00 FF 01 F0 06 80 16
DPCM : 80 5A 01 55 55 55 55 55 55 55 55 55 55 55 55 55 55
DPCMDEF   4   865 "g_oh"
DPCM : 00 FF FF 00 00 8A 05 F8 FF FF 01 00 FE FF 0F 00 B8 FF EF 06 00 C0 FF 7F 00 00 4A 26 F8 FF FF 00
DPCM : 00 FE FF 0F 00 F8 FF D7 07 00 00 FF FF 00 00 5A 05 F8 FF FF 01 00 FC FF 1F 00 E0 FF AF 1B 00 00
DPCM : FF FF 01 00 68 2B C0 FF FF 07 00 F0 FF 3F 00 E0 FF 9F 4E 20 00 FE FF 01 00 58 32 C0 FF FF 1F 00
DPCM : E0 FF 7F 00 80 FF 3F 5B 20 00 EE FF 07 00 60 29 01 FF FF 3F 00 C0 FF FF 00 80 FF 7F 7A 01 00 F0
DPCM : FF 1F 00 00 EB 02 FC FF FF 00 00 FE FF 07 00 FC FF F4 80 02 60 FF 3F 00 80 A5 04 F8 FF FF 01 00
DPCM : FE FF 0F 00 F8 FF AB 05 04 C0 FF 3F 00 80 2D 03 E0 FF FF 07 00 F8 FF 3F 00 F0 FF C7 26 10 80 FF
DPCM : 7F 00 00 9D 2C 80 FF FF 1F 00 E0 FF 7F 00 C0 FF 1F 4D 60 00 BF FF 00 01 12 12 E2 FF FF 0F 00 F0
DPCM : FF 7F 00 40 FF 7F 9B 00 00 FE FF 01 00 D8 4A 00 FE FF 7F 00 80 FF FF 01 00 FF FF 68 C1 00 7A FF
DPCM : 03 00 58 2B 01 FE FF 7F 00 00 FF FF 03 00 FE FF 68 41 03 B8 FF 03 04 B0 81 04 FC FF FF 00 00 FF
DPCM : FF 03 00 FF FF D1 05 00 F0 FF 1F 00 80 47 06 F0 FF FF 03 00 FC FF 0F 00 F8 FF A3 13 0C C0 F7 3F
DPCM : 00 80 16 2A F0 FF FF 03 00 FC FF 0F 00 F0 FF 9F 09 08 E0 DF 3F 00 00 2B 11 FC FF FF 01 00 FC FF
DPCM : 0F 00 F0 FF 5F 09 10 E0 FF 2F 00 00 57 02 F8 FF FF 01 00 FC FF 1F 00 F8 FF 37 15 00 E0 FE 3F 00
DPCM : 00 2B 0C F8 FF FF 01 00 FE FF 0F 00 F8 FF B7 05 00 40 FF FF 00 00 54 09 FC FF FF 01 00 FC FF 1F
DPCM : 00 E0 FF DF 15 00 00 FF FF 00 00 54 49 F8 FF FF 01 00 FC FF 1F 00 E0 FF BF 16 00 00 FF FF 01 00
DPCM : B0 09 F0 FF FF 07 00 F8 FF 3F 00 C0 FF 5F 57 00 00 FC FF 07 00 A0 AD 80 FF FF 0F 00 E0 FF 7F 00
DPCM : 80 FF 7F 5A 80 00 FC FF 07 00 A0 6D 05 F8 FF 7F 00 00 FF FF 03 00 FE FF B1 01 06 E0 FF 3F 00 00
DPCM : 06 07 FC FF FF 00 00 FE FF 07 00 FC FF D7 0B 00 00 FF FF 01 00 B8 36 00 FF FF 1F 00 E0 FF 7F 00
DPCM : C0 FF 1F 5A C1 00 BC FF 07 00 60 B2 01 FF FF 3F 00 C0 FF FF 00 00 FF 7F 6C 01 01 B8 FF 1F 00 80
DPCM : C9 06 FC FF FF 00 00 FE FF 07 00 FC FF A9 05 04 C0 FF 7F 00 00 DC 0E C0 FF FF 0F 00 E0 FF 3F 00
DPCM : E0 FF 0F 15 7C 00 DB FF 80 00 58 4A C0 FF FF 0F 00 E0 FF 7F 00 E0 FF 1F 1A 70 00 F7 FF 01 00 58
DPCM : B5 00 FF FF 3F 00 80 FF FF 01 00 FF 3F 2C D1 00 BA FF 03 04 A0 75 01 FC FF 7F 00 00 FF FF 03 00
DPCM : FE FF 28 C2 01 AE FD 07 02 50 D5 01 F8 FF FF 01 00 FE FF 07 00 FC FF D0 84 07 B0 FA 1F 04 80 89
DPCM : 0B F8 FF FF 01 00 FE FF 07 00 F8 FF D3 01 06 E0 DF 3F 00 80 86 0D F0 FF FF 03 00 FC FF 0F 00 F8
DPCM : FF 47 07 0C C0 FE 7F 00 00 56 15 C0 FF FF 0F 00 F0 FF 3F 00 E0 FF 8F 56 18 00 F6 FF 03 00 58 8F
DPCM : 00 FF FF 3F 00 80 FF FF 00 80 FF 3F 34 D1 00 F4 FF 83 00 60 77 00 F8 FF FF 00 00 FE FF 07 00 FE
DPCM : 7F 98 46 07 A0 FD 1F 02 40 DB 02 E0 FF FF 07 00 F8 FF 1F 00 F8 FF 81 2A 0F 80 FA FF 10 00 B4 09
DPCM : 80 FF FF 1F 00 E0 FF 7F 00 E0 FF 87 DA 34 00 F8 FF 43 00 D0 96 55 55 55 55 55 55 55 55 55 55 55
DPCM : 55
DPCMDEF   5   881 "a_o"
DPCM : 00 C0 FF FF 03 D0 07 86 FF FF 03 00 90 FF FF FF 05 00 00 00 F0 FF FF 00 69 07 C3 FD FF 01 00 E4
DPCM : FF FF 7F 02 00 00 00 F8 FF 7F 80 BC C1 70 FF 7F 00 00 F9 FF FF 2F 00 00 00 00 FF FF 1F 20 6F 30
DPCM : DC FF 3F 00 80 FC FF FF 0B 00 00 00 C0 FF FF 07 C4 17 0C FE FF 0F 00 20 FF FF FF 04 00 00 00 F0
DPCM : FF FF 01 F1 05 C3 FD 7F 03 00 EC FF FF 1F 01 00 00 00 FC FF 7F 40 7C C1 70 FF 7F 00 80 FB FF FF
DPCM : 43 00 00 00 80 FF FF 0F 08 5F 18 EC FF 1B 00 70 FF FF FF 00 00 00 00 E0 FF FF 03 E3 0B 82 FB FF
DPCM : 03 00 BC FF FF 3F 04 00 00 00 F8 FF 7F 40 7C C1 60 FF 7F 00 80 EF FF FF 27 00 00 00 00 FF FF 1F
DPCM : 10 5F 30 D8 FF 1F 00 F0 FE FF FF 01 00 00 00 C0 FF FF 07 C4 0F 0C FE FF 06 00 BC FF FF BF 00 00
DPCM : 00 00 F0 FF FF 01 F2 03 83 FF BF 01 00 EF FF FF 0F 01 00 00 00 FC FF 7F 80 F4 C1 E0 FF 77 00 C0
DPCM : FB FF FF 43 00 00 00 00 FF FF 1F 40 7D 30 F8 FF 1B 00 F0 FE FF FF 10 00 00 00 80 FF FF 0F 90 1F
DPCM : 1C F4 FF 0D 00 F8 FE FF FF 10 00 00 00 E0 FF FF 03 A0 1F 0C FB 7F 07 00 7C FF FF 3F 04 00 00 00
DPCM : F0 FF FF 01 E2 07 C3 FE DF 01 00 DF FF FF 1F 00 00 00 00 FC FF FF 00 E8 87 C1 FD DF 01 00 EF FF
DPCM : FF 0F 00 00 00 00 FE FF 7F 00 FA C1 70 FF 6F 00 C0 F7 FF FF 07 00 00 00 00 FF FF 1F 40 7E 61 70
DPCM : FF 77 00 C0 FF FF FF 01 00 00 00 80 FF FF 0F 30 5F 38 B8 FF 33 00 E8 FF FF 7F 00 00 00 00 E0 FF
DPCM : FF 07 88 5F 0C F6 FF 0C 00 FA FF FF 1F 00 00 00 00 F8 FF FF 01 E2 17 83 FD FE 01 00 DF FF FF 0F
DPCM : 00 00 00 00 FC FF FF 80 F4 C5 C0 FE 7F 00 A0 F7 FF FF 03 01 00 00 00 FF FF 1F 20 FD 30 B0 FF 3B
DPCM : 00 E8 FD FF FF 40 00 00 00 C0 FF FF 0F C0 1F 0C EC FF 0D 00 7A FF FF 3F 10 00 00 00 E0 FF FF 03
DPCM : E6 07 03 FB 7F 03 80 DE FF FF 2F 00 00 00 00 F8 FF FF 01 E9 C3 82 FE DF 00 C0 FE FF FF 07 00 00
DPCM : 00 00 FE FF 7F 80 FC C1 60 BF 6F 20 C0 FF FF FF 01 00 00 00 80 FF FF 1F 40 7F 30 D8 EF 17 10 F0
DPCM : FD FF FF 00 00 00 00 C0 FF FF 07 D4 1F 0C F6 FD 0E 00 7C FF FF 3F 00 00 00 00 F0 FF FF 03 D4 0F
DPCM : 03 7F BF 01 01 FE FF FF 1F 00 00 00 00 FC FF 7F 80 F2 C3 C0 BF DF 00 80 FF FF FF 07 00 00 00 00
DPCM : FF FF 3F 00 FD 60 E8 EF 37 00 E0 FF FF FF 41 00 00 00 80 FF FF 0F 20 3F 18 FC FB 0D 00 F8 FE FF
DPCM : FF 08 00 00 00 C0 FF FF 07 C8 0F 06 FB 7F 07 00 BC FF FF 3F 04 00 00 00 F0 FF FF 01 E2 07 87 FE
DPCM : DF 01 00 DE FF FF 1F 05 00 00 00 F0 FF FF 00 E5 87 C1 FF 9F 00 00 FF FF FF 1F 00 00 00 00 F8 FF
DPCM : FF 00 F9 85 E1 FD 9F 00 00 FF FF FF 1F 00 00 00 00 FC FF 7F 00 F9 85 E1 FF 8F 00 00 FF FF FF 0F
DPCM : 01 00 00 00 FC FF 7F 00 F9 C1 E1 FF 8F 00 00 FF FF FF 0F 00 00 00 00 FE FF 7F 00 FC C1 E1 FF 4F
DPCM : 00 00 FF FF FF 0F 00 00 00 00 FE FF 3F 40 FC 61 F8 FF 47 00 80 F7 FF FF 0F 00 00 00 00 FF FF 1F
DPCM : 40 7E 70 F8 FF 33 00 80 FF FF FF 43 00 00 00 00 FF FF 1F 80 BE 30 FC FF 13 00 C0 FF FF FF 03 00
DPCM : 00 00 80 55 55 55 55 55 55 55 55 55 55 55 55 55 55
DPCMDEF   6   849 "b_u"
DPCM : 7F 00 A0 FD 5B 00 00 00 20 FF FF FF FF FF FF 7F 02 00 00 00 7D 17 00 00 00 D0 FF FF FF FF FF FF
DPCM : AF 00 00 00 40 DF 05 00 00 00 FA FF FF FF FF FF FF 29 00 00 00 D0 77 01 00 00 80 FE FF FF FF FF
DPCM : FF BF 12 00 00 00 F4 6D 00 00 00 C0 FF FF FF FF FF FF 6F 02 00 00 00 7D 1B 00 00 00 D0 FF FF FF
DPCM : FF FF FF 2F 01 00 00 C0 BE 45 00 00 00 F0 FF FF FF FF FF FF 4B 00 00 00 B0 6F 09 00 00 00 FC FF
DPCM : FF FF FF FF FF 14 00 00 00 EC DB 20 00 00 00 FE FF FF FF FF FF 6F 05 00 00 00 FB 36 08 00 00 80
DPCM : FF FF FF FF FF FF 5B 01 00 00 80 DF 0D 02 00 00 E0 FF FF FF FF FF FF 36 00 00 00 E0 BE 45 00 00
DPCM : 00 F0 FF FF FF FF FF FF 15 00 00 00 B8 DF 08 00 00 00 FC FF FF FF FF FF 7F 0D 00 00 00 DC 2F 01
DPCM : 00 00 00 FF FF FF FF FF FF DF 02 00 00 00 EF 1B 00 00 00 80 FF FF FF FF FF FF 3F 01 00 00 C0 BE
DPCM : 0B 02 00 00 C0 FF FF FF FF FF FF D7 00 00 00 A0 FB 22 00 00 00 F0 FF FF FF FF FF FF 2D 00 00 00
DPCM : D0 BF 41 00 00 00 F8 FF FF FF FF FF FF 04 00 00 00 FC DB 20 00 00 00 FE FF FF FF FF FF BF 04 00
DPCM : 00 00 F6 17 01 00 00 A0 FF FF FF FF FF FF 2F 01 00 00 80 FD 19 00 00 00 F0 FF FF FF FF FF FF 93
DPCM : 00 00 00 E0 77 11 00 00 00 FC FF FF FF FF FF FF 04 00 00 00 DE 5B 00 00 00 A0 FF FF FF FF FF FF
DPCM : 2F 01 00 00 80 77 4B 00 00 00 E8 FF FF FF FF FF FF 93 00 00 00 E0 DB 02 00 00 00 FD FF FF FF FF
DPCM : FF 7F 03 00 00 00 F6 2D 01 00 00 A0 FF FF FF FF FF FF 37 01 00 00 80 77 2B 00 00 00 E8 FF FF FF
DPCM : FF FF FF 93 00 00 00 E0 DB 24 00 00 00 FA FF FF FF FF FF FF 24 00 00 00 F8 56 01 00 00 C0 FE FF
DPCM : FF FF FF FF 3F 09 00 00 00 BE 55 00 00 00 D0 FF FF FF FF FF FF 2F 01 00 00 40 77 15 00 00 00 F4
DPCM : FF FF FF FF FF FF 4B 00 00 00 E0 5D 05 00 00 00 FD FF FF FF FF FF FF 12 00 00 00 78 D7 00 00 00
DPCM : 80 FE FF FF FF FF FF FF 09 00 00 00 EC 4D 02 00 00 80 FF FF FF FF FF FF FF 00 00 00 00 7B 4B 00
DPCM : 00 00 D0 FF FF FF FF FF FF 5F 02 00 00 80 6E 0B 00 00 00 D8 FF FF FF FF FF FF 9F 00 00 00 C0 DE
DPCM : 0A 00 00 00 EC FF FF FF FF FF FF 53 00 00 00 E0 BB 12 00 00 00 FA FF FF FF FF FF BF 25 00 00 00
DPCM : D8 B7 01 00 00 80 FD FF FF FF FF FF 6F 13 00 00 00 74 5F 04 00 00 40 FF FF FF FF FF FF 37 01 00
DPCM : 00 00 BF 27 00 00 00 D8 FF FF FF FF FF FF 95 00 00 00 C0 DF 05 00 00 00 F6 FF FF FF FF FF 7F 25
DPCM : 00 00 00 D8 B7 01 00 00 80 FE FF FF FF FF FF 5F 05 00 00 00 DE 5D 00 00 00 C0 FF FF FF FF FF FF
DPCM : 2F 02 00 00 80 FB 16 00 00 00 F0 FF FF FF FF FF FF 4B 00 00 00 E0 B7 09 00 00 00 FA FF FF FF FF
DPCM : FF FF 09 00 00 00 F8 B5 01 00 00 80 FE FF FF FF FF FF 3F 09 00 00 00 BE 6D 00 00 00 A0 FF FF FF
DPCM : FF FF FF 4F 02 00 00 80 6F 4B 00 00 00 E8 FF FF FF FF FF FF 93 00 00 00 E0 DB 12 00 00 00 FC FF
DPCM : FF FF FF FF 55 55 55 55 55 55 55 55 55 55 55 55 55

# Instruments
INST2A03   0    18  -1  -1  -1  -1 "AEIOU"
KEYDPCM   0   3   0     0  15   0     0  -1
KEYDPCM   0   3   2     1  15   0     0  -1
KEYDPCM   0   3   4     2  15   0     0  -1
KEYDPCM   0   3   5     3  15   0     0  -1
KEYDPCM   0   3   7     4  15   0     0  -1
KEYDPCM   0   3   9     5  15   0     0  -1
KEYDPCM   0   3  11     6  15   0     0  -1
INST2A03   1    21  -1  -1  -1  -1 "Blah"
INST2A03   2    85  28  -1  -1  -1 "Bass_kick_suss"
INST2A03   3    86  -1  -1  -1  -1 "click_00"
INST2A03   4    87  -1  -1  -1  38 "click_15"
INST2A03   5    88  -1  -1  -1  39 "click_50"
INST2A03   6    89  29  22  -1  40 "heavy_maj_arp"
INST2A03   7    90  -1  -1  -1  -1 "HiHats"
INST2A03   8    91  30  -1  -1  41 "kick_hats_combo"
INST2A03   9    92  -1  -1  -1  -1 "Perc_1_00"
INST2A03  10    93  -1  -1  -1  -1 "Perc_2_00"
INST2A03  11    94  -1  -1  -1  -1 "perc_3_00"
INST2A03  12    95  -1  23  -1  42 "plink"
INST2A03  13    96  31  -1  -1  43 "powerchord_1"
INST2A03  14    97  32  -1  -1  44 "snare_hats_combo"
INST2A03  15    98  -1  -1  -1  45 "star_plink"
INST2A03  16    99  -1  24  -1  -1 "triangle_snare"
INST2A03  17   100  -1  25  -1  46 "voice1_00"
INST2A03  18   101  -1  26  -1  47 "voice2"
INST2A03  19   102  -1  27  -1  48 "voice3_heavy_vibe"
INST2A03  20   103  33  28  -1  49 "voice3_hVibe_Oct"
INST2A03  21   104  -1  29  -1  50 "voice3_slide"

# Tracks

TRACK  64   6 150 "Lalala"
COLUMNS : 1 1 1 1 1

ORDER 00 : 00 00 00 00 00

PATTERN 00
ROW 00 : ... .. . ... : C#3 0D . ... : E-3 10 . ... : 4-# 07 . ... : ... .. . ...
ROW 01 : ... .. . ... : ... .. . ... : ... .. . ... : ... .. . ... : ... .. . ...
ROW 02 : C-3 0C . ... : ... .. . ... : ... .. . ... : ... .. . ... : ... .. . ...
ROW 03 : ... .. . ... : ... .. . ... : ... .. . ... : ... .. . ... : ... .. . ...
ROW 04 : ... .. . ... : C#3 0D . ... : ... .. . ... : ... .. . ... : ... .. . ...
ROW 05 : ... .. . ... : ... .. . ... : ... .. . ... : ... .. . ... : ... .. . ...
ROW 06 : ... .. . ... : ... .. . ... : ... .. . ... : ... .. . ... : ... .. . ...
ROW 07 : ... .. . ... : ... .. . ... : ... .. . ... : ... .. . ... : ... .. . ...
ROW 08 : E-3 0C . ... : E-3 0D . ... : ... .. . ... : 6-# 07 . ... : ... .. . ...
ROW 09 : ... .. . ... : ... .. . ... : ... .. . ... : ... .. . ... : ... .. . ...
ROW 0A : C-3 0C . ... : ... .. . ... : ... .. . ... : ... .. . ... : ... .. . ...
ROW 0B : ... .. . ... : ... .. . ... : ... .. . ... : ... .. . ... : ... .. . ...
ROW 0C : C#3 0C . ... : E-3 0D . ... : C-3 10 . ... : 4-# 07 . ... : ... .. . ...
ROW 0D : ... .. . ... : ... .. . ... : ... .. . ... : ... .. . ... : ... .. . ...
ROW 0E : F-3 0C . ... : ... .. . ... : ... .. . ... : 4-# 07 . ... : ... .. . ...
ROW 0F : ... .. . ... : ... .. . ... : ... .. . ... : ... .. . ... : ... .. . ...
ROW 10 : ... .. . ... : C#3 0D . ... : E-3 10 . ... : 6-# 07 . ... : C-3 00 . ...
ROW 11 : ... .. . ... : ... .. . ... : ... .. . ... : ... .. . ... : ... .. . ...
ROW 12 : C-3 0C . ... : ... .. . ... : ... .. . ... : ... .. . ... : E-3 00 . ...
ROW 13 : ... .. . ... : ... .. . ... : ... .. . ... : ... .. . ... : ... .. . ...
ROW 14 : ... .. . ... : C#3 0D . ... : ... .. . ... : ... .. . ... : ... .. . ...
ROW 15 : ... .. . ... : ... .. . ... : ... .. . ... : ... .. . ... : ... .. . ...
ROW 16 : ... .. . ... : ... .. . ... : ... .. . ... : ... .. . ... : ... .. . ...
ROW 17 : ... .. . ... : ... .. . ... : ... .. . ... : ... .. . ... : ... .. . ...
ROW 18 : E-3 0C . ... : E-3 0D . ... : C-3 10 . ... : 6-# 07 . ... : A-3 00 . ...
ROW 19 : ... .. . ... : ... .. . ... : ... .. . ... : ... .. . ... : ... .. . ...
ROW 1A : G-3 0C . ... : ... .. . ... : ... .. . ... : ... .. . ... : G-3 00 . ...
ROW 1B : ... .. . ... : ... .. . ... : ... .. . ... : ... .. . ... : ... .. . ...
ROW 1C : D#3 0C . ... : E-3 0D . ... : C-3 10 . ... : 4-# 07 . ... : C-3 00 . ...
ROW 1D : ... .. . ... : ... .. . ... : ... .. . ... : ... .. . ... : ... .. . ...
ROW 1E : F-3 0C . ... : ... .. . ... : ... .. . ... : 4-# 07 . ... : B-3 00 . ...
ROW 1F : ... .. . ... : ... .. . ... : ... .. . ... : ... .. . ... : ... .. . ...
ROW 20 : ... .. . ... : E-3 0D . ... : E-3 10 . ... : 6-# 07 . ... : D-3 00 . ...
ROW 21 : ... .. . ... : ... .. . ... : ... .. . ... : ... .. . ... : ... .. . ...
ROW 22 : C-3 0C . ... : ... .. . ... : ... .. . ... : ... .. . ... : ... .. . ...
ROW 23 : ... .. . ... : ... .. . ... : ... .. . ... : ... .. . ... : ... .. . ...
ROW 24 : ... .. . ... : C#3 0D . ... : ... .. . ... : ... .. . ... : ... .. . ...
ROW 25 : ... .. . ... : ... .. . ... : ... .. . ... : ... .. . ... : ... .. . ...
ROW 26 : ... .. . ... : ... .. . ... : ... .. . ... : ... .. . ... : ... .. . ...
ROW 27 : ... .. . ... : ... .. . ... : ... .. . ... : ... .. . ... : ... .. . ...
ROW 28 : E-3 0C . ... : C#3 0D . ... : ... .. . ... : 6-# 07 . ... : E-3 00 . ...
ROW 29 : ... .. . ... : ... .. . ... : ... .. . ... : ... .. . ... : ... .. . ...
ROW 2A : C-3 0C . ... : ... .. . ... : ... .. . ... : ... .. . ... : A-3 00 . ...
ROW 2B : ... .. . ... : ... .. . ... : ... .. . ... : ... .. . ... : ... .. . ...
ROW 2C : C#3 0C . ... : E-3 0D . ... : C-3 10 . ... : 4-# 07 . ... : C-3 00 . ...
ROW 2D : ... .. . ... : ... .. . ... : ... .. . ... : ... .. . ... : ... .. . ...
ROW 2E : F-3 0C . ... : ... .. . ... : ... .. . ... : 4-# 07 . ... : B-3 00 . ...
ROW 2F : ... .. . ... : ... .. . ... : ... .. . ... : ... .. . ... : ... .. . ...
ROW 30 : ... .. . ... : E-3 0D . ... : E-3 10 . ... : 6-# 07 . ... : D-3 00 . ...
ROW 31 : ... .. . ... : ... .. . ... : ... .. . ... : ... .. . ... : ... .. . ...
ROW 32 : C-3 0C . ... : ... .. . ... : ... .. . ... : ... .. . ... : ... .. . ...
ROW 33 : ... .. . ... : ... .. . ... : ... .. . ... : ... .. . ... : ... .. . ...
ROW 34 : ... .. . ... : C#3 0D . ... : ... .. . ... : ... .. . ... : C-3 00 . ...
ROW 35 : ... .. . ... : ... .. . ... : ... .. . ... : ... .. . ... : ... .. . ...
ROW 36 : ... .. . ... : ... .. . ... : ... .. . ... : ... .. . ... : F-3 00 . ...
ROW 37 : ... .. . ... : ... .. . ... : ... .. . ... : ... .. . ... : ... .. . ...
ROW 38 : G-3 0C . ... : E-3 0D . ... : C-3 10 . ... : 6-# 07 . ... : ... .. . ...
ROW 39 : ... .. . ... : ... .. . ... : ... .. . ... : ... .. . ... : ... .. . ...
ROW 3A : F-3 0C . ... : ... .. . ... : ... .. . ... : ... .. . ... : ... .. . ...
ROW 3B : ... .. . ... : ... .. . ... : ... .. . ... : ... .. . ... : ... .. . ...
ROW 3C : E-3 0C . ... : E-3 0D . ... : E-3 10 . ... : 4-# 07 . ... : ... .. . ...
ROW 3D : ... .. . ... : ... .. . ... : ... .. . ... : ... .. . ... : ... .. . ...
ROW 3E : F-3 0C . ... : ... .. . ... : ... .. . ... : 4-# 07 . ... : ... .. . ...
ROW 3F : ... .. . ... : ... .. . ... : ... .. . ... : ... .. . ... : ... .. . ...

# End of export
